<svg width="128" height="128" viewBox="0 0 128 128" xmlns="http://www.w3.org/2000/svg" role="img" aria-labelledby="title desc">
  <title id="title">LIVP Preview Logo</title>
  <desc id="desc">A compact Live Photo preview icon with a photo card, play symbol, and motion rings.</desc>
  <defs>
    <linearGradient id="bg" x1="18" y1="12" x2="112" y2="118" gradientUnits="userSpaceOnUse">
      <stop stop-color="#172033"/>
      <stop offset="0.58" stop-color="#111827"/>
      <stop offset="1" stop-color="#07111F"/>
    </linearGradient>
    <linearGradient id="photo" x1="35" y1="33" x2="91" y2="91" gradientUnits="userSpaceOnUse">
      <stop stop-color="#F8FBFF"/>
      <stop offset="1" stop-color="#DDE7F5"/>
    </linearGradient>
    <linearGradient id="imageFill" x1="38" y1="48" x2="88" y2="88" gradientUnits="userSpaceOnUse">
      <stop stop-color="#28D9C8"/>
      <stop offset="0.52" stop-color="#2E7CF6"/>
      <stop offset="1" stop-color="#7756F5"/>
    </linearGradient>
    <linearGradient id="motion" x1="17" y1="26" x2="107" y2="105" gradientUnits="userSpaceOnUse">
      <stop stop-color="#43F5D6"/>
      <stop offset="0.5" stop-color="#60A5FA"/>
      <stop offset="1" stop-color="#FB7185"/>
    </linearGradient>
    <filter id="shadow" x="-20%" y="-20%" width="140%" height="150%">
      <feDropShadow dx="0" dy="8" stdDeviation="8" flood-color="#020617" flood-opacity="0.35"/>
    </filter>
  </defs>

  <rect x="10" y="10" width="108" height="108" rx="26" fill="url(#bg)"/>
  <path d="M32 27C19.8 37.3 16.2 55.9 23.6 70.2" fill="none" stroke="url(#motion)" stroke-width="7" stroke-linecap="round"/>
  <path d="M95.8 29.2C108.6 39.2 112.8 58 105.5 73" fill="none" stroke="url(#motion)" stroke-width="7" stroke-linecap="round" opacity="0.9"/>
  <path d="M102.8 91.8C93.2 105 73.8 110.5 58.5 104.6" fill="none" stroke="url(#motion)" stroke-width="7" stroke-linecap="round" opacity="0.8"/>

  <g filter="url(#shadow)">
    <rect x="31" y="32" width="66" height="66" rx="15" fill="url(#photo)"/>
    <rect x="38" y="47" width="52" height="39" rx="8" fill="url(#imageFill)"/>
    <circle cx="78" cy="43" r="5.5" fill="#FBBF24"/>
    <path d="M39 78L52.3 64.3C54 62.5 56.9 62.7 58.3 64.8L66 75.8L70.4 70.8C72 69 74.7 69 76.3 70.7L90 85H39V78Z" fill="#EAFDF8" opacity="0.92"/>
    <circle cx="64" cy="66" r="18" fill="#0F172A" opacity="0.58"/>
    <path d="M58.2 55.8V76.2C58.2 78.2 60.5 79.4 62.1 78.2L76.3 68C77.7 67 77.7 65 76.3 64L62.1 53.8C60.5 52.6 58.2 53.8 58.2 55.8Z" fill="#FFFFFF"/>
  </g>

  <circle cx="25" cy="87" r="4" fill="#43F5D6"/>
  <circle cx="101" cy="84" r="3.5" fill="#FB7185"/>
  <circle cx="64" cy="22" r="3" fill="#93C5FD"/>
</svg>
